<?xml version="1.0" standalone="no"?>
<!DOCTYPE svg PUBLIC "-//W3C//DTD SVG 20010904//EN"
 "http://www.w3.org/TR/2001/REC-SVG-20010904/DTD/svg10.dtd">
<svg version="1.0" xmlns="http://www.w3.org/2000/svg"
 width="56.000000pt" height="63.000000pt" viewBox="0 0 56.000000 63.000000"
 preserveAspectRatio="xMidYMid meet">

<g transform="translate(0.000000,63.000000) scale(0.100000,-0.100000)"
fill="#000000" stroke="none">
<path d="M218 361 c3 -164 4 -169 27 -191 l25 -23 0 70 0 70 50 27 50 27 0 84
c0 99 -5 105 -97 105 l-58 0 3 -169z m102 63 c0 -33 -5 -51 -17 -60 -29 -22
-33 -17 -33 46 0 57 1 60 25 60 23 0 25 -4 25 -46z"/>
</g>
</svg>
